<svg xmlns="http://www.w3.org/2000/svg" width="512" height="512" viewBox="0 0 152 152"><path d="M70.516 18.512c1.37.101 2.683.05 4.046-.063 1.336-.09 2.672-.086 4.016-.086l.746-.004c5.696.012 11.18 1.063 16.621 2.688.172.055 4.352 1.535 6.2 2.441 2.484.887 2.742 1.14 5.12 2.754.212.121 3.32 2.074 4.626 3.008.21.133.418.277.632.418 1.286.898 2.438 1.902 3.586 2.969l.457.433c.692.66 1.364 1.313 1.989 2.04.992 1.203.992 1.203 2.39 1.757.66-.062.66-.062 1.32-.195 1.712-.262 3.473.062 4.915.996.32.125.648.25.976.363 3.145 1.227 5.805 3.348 8.27 5.602.39.36.797.703 1.21 1.027 3.622 3.137 6.223 7.656 7.938 12.063l.238.582c.274.71.356 1.097.204 1.855-.512.555-1.141.926-1.77 1.332-.27.172-8.016 5.574-8.473 5.938-.39.265-.39.265-.832.265l.09.618c.324 2.453.485 4.886.57 7.359l.028.691c.035 1.485-.094 2.953-.219 4.43-.015.223-.035.441-.055.668a40 40 0 0 1-.382 3.133c-.364 1.68-.364 1.68.004 3.285.476.367.968.598 1.515.867a72 72 0 0 1 1.453 1.05c1.22.88 2.465 1.716 3.72 2.54 1.476.98 2.92 2.012 4.35 3.05-.628 4.989-4.015 9.055-7.53 12.41l-.54.556c-4.086 4.02-9.523 7.308-15.347 7.699-.73-.055-.73-.055-1.532-.403-.476-.144-.476-.144-.972-.097-.817.535-1.426 1.25-2.078 1.965-1.368 1.48-2.739 2.804-4.348 4.023l-.379.297c-3.289 2.55-6.777 4.535-10.5 6.363-.367.18-.734.367-1.102.551-5.695 2.797-12.101 4.133-18.378 4.75l-.606.066c-1.46.149-2.91.192-4.375.184h-.64c-1.286 0-2.536-.07-3.813-.195a20 20 0 0 0-1.863-.082h-.594c-.633.023-1.254.074-1.883.14-10.148.957-20.61-1.394-29.613-6.066q-.78-.404-1.567-.8c-1.875-.966-3.652-1.95-5.343-3.216l-1.106-.758c-1.765-1.23-3.34-2.613-4.87-4.117l-.638-.617a157 157 0 0 1-1.816-1.785q-.369-.359-.738-.719c-1.621-1.594-3.032-3.215-4.344-5.078l-.32-.45a59 59 0 0 1-6.094-10.96 54 54 0 0 0-.469-1.086C7.855 86.027 7.266 73.578 9.97 62.039l.16-.68a33 33 0 0 1 1.2-3.957l.202-.53c3.278-8.638 7.82-15.755 14.328-22.294.118-.121 3.094-2.89 3.168-3.117.41-.36 1.52-1.223 1.653-1.32 3.105-2.305 6.484-4.141 9.867-5.989l.488-.265c5.285-2.864 11.309-4.375 17.254-4.992.473-.055.473-.055 1.094-.282 3.637-.48 7.48-.367 11.133-.101m0 0" style="stroke:none;fill-rule:nonzero;fill:#fd65dd;fill-opacity:1"/><path d="m124.125 36.71.52.056c1.011.117 6.07 2.375 6.925 2.96.32.126 5.653 4.602 6.067 4.934 3.62 3.137 6.222 7.656 7.937 12.063l.238.582c.274.71.356 1.097.204 1.855-.512.555-11.032 8.313-11.489 8.668-.394.27-.945 16.586-.582 18.184.48.367 6.465 4.5 7.72 5.324 1.476.98 2.92 2.012 4.35 3.05-.628 4.989-4.015 9.055-7.53 12.41l-.54.556c-4.086 4.02-9.523 7.308-15.347 7.699-.73-.055-4.453-1.84-4.453-1.989-.192-.042-6.704-5.445-6.91-5.82-.547-.496-3.13-2.699-3.993-3.77-.523-.628-4.195-4.73-4.875-6.644l-.176-.469c-.418-1.222-.636-2.48-.851-3.754l-.082-.484c-.54-3.512-.434-28.758-.219-31.41.148 0 .148-3.125.883-5.094.738-1.972 2.215-4.09 3.582-5.527.586-.625 11.707-10.149 11.84-11.059.242-1.703 5.73-2.457 6.781-2.32m0 0" style="stroke:none;fill-rule:nonzero;fill:#000091;fill-opacity:1"/><path d="M79.988 37.45c0 .14 2.918.816 2.918.816s2.582 1.273 2.844 1.379c.266.105 11.32 7.628 12.41 9.32v.668c-.469.355-11.3 7.605-11.3 7.754-.868-.125-1.29-.528-1.91-1.121-2.907-2.7-2.907-2.7-6.516-4.196 0-.148-3.7.285-5.48 1.871-1.005 1.141-2.786 3.672-2.938 3.672-.282 3.907-.34 7.825-.442 11.739H88.41v12.851H69.352v31.02H54.727c0-6.395-.024-47.567-.024-47.754 0-.88.04-1.684.25-2.543.035-.367.063-.739.094-1.106.426-5.68 1.527-9.172 5.664-13.293.41-.476 6.602-6.382 6.86-6.644 3.449-3.426 7.55-5.367 12.417-4.434m0 0" style="stroke:none;fill-rule:nonzero;fill:#000092;fill-opacity:1"/><path d="M70.516 18.512c1.37.101 2.683.05 4.046-.063 1.336-.09 4.508-.09 4.762-.09 5.696.012 11.18 1.063 16.621 2.688l.52.16c1.98.594 3.832 1.375 5.68 2.281.199.09 3.636 1.883 5.12 2.754l.618.363a53 53 0 0 1 4.008 2.645l.656.445c1.691 1.188 3.176 2.559 4.664 3.98l-.664.227c-.352-.242-.352-.242-.746-.62-.934-.876-1.93-1.634-2.953-2.4-.934-.702-.934-.702-1.176-1.187a32 32 0 0 0-1.55-.89c-.653-.36-.653-.36-1.11-.668v-.438l-.41-.101c-1.282-.34-2.227-.801-3.301-1.563a10 10 0 0 0-3.38-1.441v-.442l-.538-.058c-1.004-.207-1.863-.61-2.785-1.051v-.664c-2.133-.54-4.27-1.063-6.407-1.578l-.71-.168q-.984-.24-1.965-.469l-.543-.133c-2.118-.496-4.196-.566-6.371-.566l-.836-.008H80.03q-.89.001-1.781-.004c-.855 0-1.715-.008-2.57-.008h-2.211c-.594.055-.942.203-1.457.5-.594.172-2.133.367-2.317.383-.382.04-.765.067-1.152.09-1.348.086-2.406.375-3.656.875-.89.285-3.801.7-4.395 1.086-.387.101-1.554.387-2.066.883-.742.554-1.356.625-2.258.738-.711.195-1.098.57-1.66 1.04q-.653.361-1.332.694l-.676.332c-.652.301-.652.301-1.195.504-.742.317-1.399.75-2.07 1.196l-1.243.812c-.402.262-.82.504-1.242.754-.863.54-2.742 1.988-2.879 2.09-.86.683-1.707 1.715-2.215 2.254-.508.547-1.578 1.125-2.504 2.086-1.109.636-2.808 2.57-3.035 2.57-.14.219-1.816 1.586-1.836 1.715-.195.613-.48.91-.918 1.375-.582.64-1.527 2.004-1.68 2.004-.238.465-.445.91-.624 1.394-.297.692-.688 1.242-1.118 1.86-2.34 3.484-4.902 8.437-5.457 12.66-.12.77-.32.992-.777 1.59-.324 1.023-.32 1.847-.539 3.023s-1.063 3.586-1.234 4.512c-.172.95-.024 3.484-.032 5.226l-.015 2.426q-.012 1.18-.012 2.348c-.008.437-.008.879-.012 1.316 0 1.633.164 3.102.582 4.68.149.594.223 1.152.278 1.758.035.87.035.87.539 1.527.09.406.156.817.21 1.227.223 2.074.223 2.074 1.122 3.867.011.515-.082 1.383.445 1.547.523.175.914 1.336 1.176 2.222a15.7 15.7 0 0 0 1.672 3.68c.285.594.304.988.25 1.633.148 0 .492.488.52.738.152.848.222.938.812 1.477.152.601.86 1.437.953 1.61.348.636.348.636.945 1.05.59.488.762.832.98 1.55.15 0 .536.231.626.466.586 1.406 1.246 2.445 2.308 3.53.39.438.39.438.63.915.19.469.19.469.788.742l.524.332v.887h.664l.308.414c.328.515.328.515.914.695.649.262.868.504 1.22 1.106v.664c.151.05.312.105.472.16.75.336 1.254.77 1.867 1.312 2.102 1.797 4.363 3.313 6.965 4.293v.664l.57.055c.742.16 1.262.422 1.91.805 2.453 1.484 5.266 2.535 7.934 3.57v.445l.781.176 1.035.238.516.114c.887.207 1.7.453 2.543.797.516.082 1.031.152 1.547.226l.226.219c.41.055.82.094 1.23.125l.684.058.52.036v.226c-9.883.13-9.883.13-14.402-.664v-.445l-.47-.043c-.652-.055-1.312-.117-1.964-.18l-.496-.039c-.938-.09-1.727-.316-2.586-.668-.664-.258-1.344-.469-2.02-.68-.441-.16-.441-.16-1.105-.605-.36-.11-.723-.203-1.09-.293a20.4 20.4 0 0 1-5.555-2.367v-.442l-.593.036c-1.805-.086-3.465-1.524-4.887-2.559-.496-.363-.496-.363-1.02-.66-2.16-1.328-3.925-3.203-5.687-5.004-.34-.344-.676-.688-1.024-1.04-.3-.3-.605-.616-.906-.925-.504-.512-.504-.512-1.172-.926v-.445l-.379-.156c-.648-.367-1.05-.825-1.55-1.383l-.528-.586c-.422-.535-.422-.535-.648-1.2l-.414-.304c-.563-.434-.778-.848-1.133-1.465-.223-.297-.441-.594-.668-.89-.703-.934-3.387-4.512-3.75-5.22l-.258-.487c-2.332-4.68-4.156-9.579-5.293-14.676l-.12-.52c-1.786-8.02-1.302-16.8.558-24.742l.16-.68a33 33 0 0 1 1.2-3.957l.202-.53c3.278-8.638 7.82-15.755 14.328-22.294.118-.121.235-.242.36-.367.148-.148 1.855-2.102 4.426-3.965 3.378-2.453 7.98-5.047 9.902-6.094l.488-.265c5.285-2.864 11.309-4.375 17.254-4.992.473-.055.473-.055 1.094-.282 3.637-.48 7.48-.367 11.133-.101m0 0" style="stroke:none;fill-rule:nonzero;fill:#fd94ca;fill-opacity:1"/><path d="M124.484 52.094c.48.422 1.61 1.781 2.11 2.258.629.64 5.367 8.109 5.722 9.363.149.578.008 1.55 2.09 3.77 2.086 2.214 2.114 15.148-1.238 20.038-.188.422-.36.844-.531 1.274-1.164 2.871-3.032 5.305-5.024 7.656-.105.125-3.75 3.328-3.75 3.477-.308.011-1.277.039-1.457.047-1.758-.145-2.746-1.47-3.863-2.704-1.996-2.386-1.996-2.386-1.996-3.988-.14 0-.95-7.125-.945-10.73v-5.309c.007-1.371 0-2.742 0-4.113v-5.684c-.004-3.164.085-6.258.507-9.398.141 0 2.473-3.86 3.098-4.43l.445-.41c1.438-1.293 2.914-1.883 4.832-1.117m0 0" style="stroke:none;fill-rule:nonzero;fill:#ec6dea;fill-opacity:1"/><path d="M71.344 19.277c1.8-.011 2.832-.597 4.633-.605.835-.004 1.964-.367 2.8-.371.809-.008 2.078.37 2.887.37.309 0 2.492.192 2.805.188 1.976-.015 1.683.196 3.633.555.195.04 1.87.606 2.355.707.18.035 2.223.285 2.398.32 1.829.399 1.747.72 3.528 1.274.453.137.898.265 1.344.402.289.09.582.172.87.262 0 .219 1.395.445 2.376.77 0 .144 1.668.816 1.863.84 1.273.253 2.398.757 3.453 1.488.895.625 1.68 1.695 2.707 2.054.434.192 1.27 1.211 1.793 1.496.895.489 1.496 1.051 2.215 1.77.55.457 1.113.902 1.68 1.348.425.343.855.703 1.27 1.062.546.488.546.488 1.097.645.832.37 1.379.925 2.02 1.558l.374.352c.86.855.86.855.895 1.625-.313.633-3.348 2.129-3.348 2.277-.34.234-.34.234-.82.527-1.098.707-3.77 3.852-4.113 3.11-.368-.73-1.801-1.75-2.383-2.309-.164-.5-.508-.883-.664-.883 0-.148-.438-.593-.664-.668-.22-.367-.446-.742-.664-1.109l-.594-.594c-.168-.172-8.414-7.527-8.711-7.824-.352-.25-.7-.48-1.07-.707l-.641-.402a530 530 0 0 0-4.05-2.438L92.022 26a9.5 9.5 0 0 0-1.511-.7 34 34 0 0 1-2.496-1.093c-5.329-2.477-10.93-3.598-16.672-4.707Zm0 0" style="stroke:none;fill-rule:nonzero;fill:#fb78ea;fill-opacity:1"/><path d="M111.453 107.684c.219.113 1.027.664 1.328.664q.459.546.887 1.109c1.02 1 3.324 2.73 3.324 2.879l.38.191c.76.38 2.573 1.598 2.495 1.79-.375.656-1.472 1.902-2.039 2.41-.14 0-2.984 2.847-3.176 2.984-.172.133-2.836 1.965-3.304 2.352-2.258 1.847-5.914 3.656-6.274 4.03-.96.704-1.543 1.165-2.664 1.555-.539.192-4.957 1.782-5.87 2.176-.778.332-6.208 1.488-6.704 1.68-1.164.398-3.332.664-4.691.664-.465.008-4.536.629-5.204.629-.207 0-4.504-.25-4.714-.25-1.016 0-1.555-.723-2.551-.93v-.226l.386-.055 3.415-.52c.414-.05 2.203-.582 2.992-.707.847-.144 2.636-.75 2.984-.789 1.348-.222 2.555-.75 3.754-1.39.73-.34 8.277-4.125 8.848-4.512.32-.18.632-.352.953-.531 1.992-1.09 3.96-2.387 5.57-4 .524-.524 1.063-.957 1.645-1.414.898-.7 5.87-6.203 5.996-6.352 1.422-1.562 1.422-1.562 2.234-3.437m0 0" style="stroke:none;fill-rule:nonzero;fill:#9952e4;fill-opacity:1"/><path d="M118.543 55.172c.586.808.8 1.555.996 2.523.172.813.332 1.473.695 2.227.399 1.043.414 2.023.457 3.14.067.758.262 1.36.512 2.079.05.386.172 1.941.438 2.66.261 1.625.257 3.265.246 4.902 0 .25 0 2.317-.008 3.102v1.601c-.004 1.309-.754 8.36-.895 9.453-.148 0-.406.465-.386.7 0 1.414-.559 2.671-1.047 3.98-.184.504-.367 1.016-.551 1.523l-.25.68c-.254.793-.426 1.578-.426 2.422-.886-.285-1.176-.824-1.61-1.586-.167-.41-.456-1.293-.605-1.293-.43-3.586-.511-7.125-.507-10.73 0-.575.085-21.364.507-24.504.141 0 1.989-2.88 2.434-2.88m0 0" style="stroke:none;fill-rule:nonzero;fill:#fd99ea;fill-opacity:1"/></svg>