<svg xmlns="http://www.w3.org/2000/svg" width="512" height="512"><path fill="#DFDDDD" d="M0 0h512v512H0z"/><path fill="#FD72CC" d="M238.688 154.625h2.003c10.401.034 19.522.788 29.309 4.375l3.23 1.133c18.5 7.08 32.674 20.548 44.77 35.867l2.012-1.426 2.675-1.887 2.637-1.863c6.223-4.242 10.093-6.09 17.676-4.824 8.845 3.076 15.496 8.406 22 15l1.965 1.934c4.927 5.186 8.643 11.313 11.035 18.066-.277 2.635-.742 3.741-2.626 5.632l-2.085 1.567-2.273 1.725-2.391 1.763-2.367 1.8c-5.815 4.365-5.815 4.365-9.258 5.513l-1.32-3c-5.952-13.85-5.952-13.85-16.68-24-2.537-.395-2.537-.395-5 1-5.078 4.59-8.599 10.002-9.29 16.891-.123 3.549-.152 7.086-.144 10.636l-.015 3.948q-.013 4.125.003 8.248c.011 3.505-.009 7.009-.038 10.514-.023 3.367-.016 6.735-.012 10.103l-.034 3.785c.065 8.136 1 13.571 6.276 20.004l1.692 1.433 1.683 1.504c2.674 1.33 4.084.86 6.879-.066 7.244-4.564 12.316-11.95 15-20 5.262 1.666 9.392 4.93 13.813 8.125l2.388 1.707A1522 1522 0 0 1 378 294c-3.75 12.559-13.357 22.464-24.637 28.746L351 324l-3.375 1.875c-5.662 1.757-12.218 2.585-17.812.188A318 318 0 0 1 325 323c-3.17.067-4.172 1.164-6.488 3.371a765 765 0 0 0-2.825 3.067c-18.972 19.785-44.475 27.283-71.333 27.898-31.672.345-59.266-10.142-82.479-31.961-12.588-13.1-21.749-29.65-25.875-47.375l-.617-2.57c-2.727-13.408-2.404-28.116.617-41.43l.52-2.828c4.742-22.884 21.398-45.322 40.578-58.262A270 270 0 0 1 187 167l2.492-1.437c4.965-2.675 10.089-4.541 15.446-6.25l1.915-.615c10.557-3.21 20.824-4.088 31.834-4.073"/><path fill="#020691" d="M343 186c8.845 3.076 15.496 8.406 22 15l1.965 1.934c4.927 5.186 8.643 11.313 11.035 18.066-.277 2.635-.742 3.741-2.626 5.632l-2.085 1.567-2.273 1.725-2.391 1.763-2.367 1.8c-5.815 4.365-5.815 4.365-9.258 5.513l-1.32-3c-5.952-13.85-5.952-13.85-16.68-24-2.537-.395-2.537-.395-5 1-5.078 4.59-8.599 10.002-9.29 16.891-.123 3.549-.152 7.086-.144 10.636l-.015 3.948q-.013 4.125.003 8.248c.011 3.505-.009 7.009-.038 10.514-.023 3.367-.016 6.735-.012 10.103l-.034 3.785c.065 8.136 1 13.571 6.276 20.004l1.692 1.433 1.683 1.504c2.674 1.33 4.084.86 6.879-.066 7.244-4.564 12.316-11.95 15-20 5.262 1.666 9.392 4.93 13.813 8.125l2.388 1.707A1522 1522 0 0 1 378 294c-3.75 12.559-13.357 22.464-24.637 28.746L351 324l-3.375 1.875c-6.265 1.944-12.26 2.55-18.422-.059C317.125 318.538 303.07 306.794 299 293c-.896-3.761-1.131-7.252-1.145-11.116l-.02-3.673-.003-3.945-.01-4.084q-.009-4.278-.007-8.554c0-3.632-.014-7.264-.031-10.896q-.015-4.219-.013-8.438c-.001-1.983-.012-3.966-.023-5.95.04-15.952 4.655-24.631 15.69-36.156 4.465-4.31 9.34-7.851 14.562-11.188l2.512-1.66c4.192-2.257 7.854-2.113 12.488-1.34"/><path fill="#020590" d="m254 186 2.383.457C269.052 189.614 278.935 196.972 288 206c-2.104 4.895-5.701 7.199-9.875 10.313l-2.184 1.705-2.12 1.595-1.93 1.462c-1.891.925-1.891.925-4.005.658-2.31-.898-3.952-2.125-5.886-3.67-3.477-2.765-6.39-4.777-10.812-5.563-4.614.724-7.06 3.15-10.188 6.5-3.136 4.39-4.065 8.227-4.316 13.547l-.116 2.307-.13 2.896L236 247h36v23h-36v55h-26c-.068-12.57-.123-25.14-.155-37.711q-.022-8.757-.071-17.514-.048-8.46-.059-16.923-.008-3.217-.032-6.434c-.208-28.591-.208-28.591 7.442-37.106l2.43-2.722L222 204l2.133-2.371c7.82-8.326 17.657-18.131 29.867-15.629"/><path fill="#FE8BBC" d="M239.688 154.875q2.093.016 4.185.027 5.063.036 10.127.098v1l-3.7.516c-26.873 3.887-51.404 14.092-68.569 36.112-17.85 24.075-25.054 51.914-21.27 81.782 3.444 18.944 11.93 35.1 24.539 49.59l1.566 1.82C204.253 344.881 229.094 352.454 254 356v1c-35.742 1.042-65.475-6.574-92.125-31.625-12.588-13.1-21.749-29.65-25.875-47.375l-.617-2.57c-2.727-13.408-2.404-28.116.617-41.43l.52-2.828c4.742-22.884 21.398-45.322 40.578-58.262A270 270 0 0 1 187 167l2.492-1.437c4.965-2.675 10.089-4.541 15.446-6.25l1.915-.615c10.954-3.33 21.418-3.968 32.834-3.823"/><path fill="#C780D5" d="M334 212c3 1 3 1 4.246 2.941 8.723 19.192 11.22 40.404 6.754 61.059l-.625 2.953c-1.759 7.634-4.418 14.802-7.375 22.047l3 1c-5.384-.131-7.76-2.202-11.387-5.82-5.284-7.14-5.08-14.02-5.082-22.637l-.023-3.934q-.019-4.11-.009-8.223a787 787 0 0 0-.065-10.458c-.032-3.358-.028-6.715-.028-10.073l-.05-3.754c.073-9.14 1.924-16.546 8.457-23.226z"/><path fill="#FC91D1" d="m328 219 3 1c8.865 20.063 8.773 46.364 2 67-.945 2.363-1.957 4.677-3 7h-3c-3.699-6.666-3.451-13.033-3.434-20.527l-.015-3.948q-.013-4.125.003-8.248c.011-3.505-.009-7.009-.038-10.514-.023-3.367-.016-6.735-.012-10.103l-.034-3.785c.056-7.101.74-11.82 4.53-17.875"/><path fill="#886FC0" d="M316 317c3.796.542 5.472 2.201 8 5l-1.504 1.285c-3.349 2.891-6.572 5.761-9.558 9.027-11.817 11.98-30.87 22.184-47.883 22.793L263 355c3.484-1.867 7.105-3.142 10.813-4.5 15.273-5.911 34.703-18.531 42.187-33.5"/><path fill="#D88FDC" d="M273 160c5.197.564 9.114 2.261 13.688 4.625l2.13 1.09c9.362 4.856 17.493 10.202 25.186 17.465 1.869 1.87 1.869 1.87 3.996 2.82v2h2a105 105 0 0 1 4 5l-7 4-1.8-2.492C304.124 179.467 290.475 167.93 273 161z"/><path fill="#DF9BDB" d="M273 160c6.23.505 11.455 3.326 17 6l-1 3-16-8z"/></svg>