<svg xmlns="http://www.w3.org/2000/svg" shape-rendering="geometricPrecision" text-rendering="geometricPrecision" viewBox="0 0 688 659"><path d="M148.877 11.59c-27.39 12.833-59.895 43.895-107.58 102.485-18.48 22.692-24.585 35.526-29.37 62.124-5.28 29.202-5.94 56.73-5.94 261.33l-.165 205.53 54.615.558 54.45.372.33-128.712.495-128.898 69.96-.558c53.13-.372 70.455-.93 71.445-2.604.66-1.302.825-24.552.33-51.708-.33-27.156-.66-50.406-.66-51.708 0-1.674-8.58-2.232-37.455-2.232-20.79 0-52.635-.558-70.95-1.302l-33.495-1.116v-25.668c0-14.136 1.155-35.154 2.475-46.872 2.805-24.552 5.775-31.806 19.965-49.848 10.725-13.392 16.005-18.6 23.265-22.878 14.85-8.556 37.95 2.232 67.32 31.434 6.435 6.324 12.375 12.09 13.53 12.834 1.815 1.116 11.55-6.138 53.295-39.06 3.135-2.604 12.21-9.486 20.13-15.252s14.355-11.532 14.52-12.648c0-.93-5.28-8.37-11.715-16.182-29.7-36.456-82.665-69.936-129.36-82.026-16.5-4.278-26.07-3.72-39.435 2.604M496.862 8.985c-19.14 7.812-37.455 22.692-68.475 54.87-23.595 24.738-45.21 51.15-56.925 69.75-18.81 29.76-22.935 70.494-21.78 216.504 1.32 156.24 2.145 159.402 62.205 226.92 44.22 49.848 66.495 69.192 85.965 74.4 23.595 6.51 51.645-2.604 85.47-27.342 41.085-30.132 69.96-64.542 86.79-103.788 14.025-32.364 15.18-28.272-14.025-51.15-13.695-10.788-33.165-26.04-43.065-34.038-9.9-7.812-18.645-14.322-19.305-14.322-.825 0-2.31 3.162-3.465 6.882-10.23 33.108-42.9 83.142-65.175 99.882-12.375 9.3-22.44 5.766-39.765-14.88-19.14-22.506-21.615-29.946-25.41-74.214-2.97-33.108-2.31-193.254.825-226.734 3.3-36.084 6.105-43.524 24.915-66.216 9.57-11.532 19.8-18.6 27.225-18.6 14.685 0 43.23 37.572 63.03 82.77 5.775 13.206 11.88 28.272 13.365 33.48 1.65 5.022 3.465 10.044 4.125 10.788 1.815 2.418 87.45-64.728 87.45-68.634 0-5.766-10.725-35.154-18.48-50.22-20.46-40.548-47.025-72.354-83.655-100.068-32.01-24.18-62.7-33.852-81.84-26.04"/></svg>